<?xml version="1.0" encoding="UTF-8" standalone="no"?>
<!-- Created with Inkscape (http://www.inkscape.org/) -->

<svg
   xmlns:dc="http://purl.org/dc/elements/1.1/"
   xmlns:cc="http://creativecommons.org/ns#"
   xmlns:rdf="http://www.w3.org/1999/02/22-rdf-syntax-ns#"
   xmlns:svg="http://www.w3.org/2000/svg"
   xmlns="http://www.w3.org/2000/svg"
   xmlns:sodipodi="http://sodipodi.sourceforge.net/DTD/sodipodi-0.dtd"
   xmlns:inkscape="http://www.inkscape.org/namespaces/inkscape"
   width="121.42888"
   height="122.85746"
   id="svg2"
   sodipodi:version="0.32"
   inkscape:version="0.46+devel"
   version="1.0"
   sodipodi:docname="Forums.svg"
   inkscape:output_extension="org.inkscape.output.svg.inkscape">
  <defs
     id="defs4">
    <inkscape:path-effect
       effect="spiro"
       id="path-effect2356"
       is_visible="true" />
    <inkscape:path-effect
       effect="spiro"
       id="path-effect2352"
       is_visible="true" />
    <inkscape:path-effect
       effect="spiro"
       id="path-effect910"
       is_visible="true" />
    <inkscape:path-effect
       effect="spiro"
       id="path-effect906"
       is_visible="true" />
    <inkscape:path-effect
       effect="spiro"
       id="path-effect902"
       is_visible="true" />
    <inkscape:path-effect
       effect="spiro"
       id="path-effect898"
       is_visible="true" />
    <inkscape:path-effect
       effect="spiro"
       id="path-effect894"
       is_visible="true" />
    <inkscape:path-effect
       effect="spiro"
       id="path-effect890"
       is_visible="true" />
    <inkscape:path-effect
       effect="spiro"
       id="path-effect882"
       is_visible="true" />
    <inkscape:path-effect
       effect="spiro"
       id="path-effect878"
       is_visible="true" />
    <inkscape:path-effect
       effect="spiro"
       id="path-effect874"
       is_visible="true" />
    <inkscape:path-effect
       effect="spiro"
       id="path-effect870"
       is_visible="true" />
    <inkscape:path-effect
       effect="spiro"
       id="path-effect866"
       is_visible="true" />
    <inkscape:path-effect
       effect="spiro"
       id="path-effect862"
       is_visible="true" />
    <inkscape:path-effect
       effect="spiro"
       id="path-effect856"
       is_visible="true" />
    <inkscape:path-effect
       effect="spiro"
       id="path-effect852"
       is_visible="true" />
    <inkscape:path-effect
       effect="spiro"
       id="path-effect848"
       is_visible="true" />
    <inkscape:path-effect
       effect="spiro"
       id="path-effect844"
       is_visible="true" />
    <linearGradient
       id="linearGradient5171">
      <stop
         style="stop-color:#2756c0;stop-opacity:0.02745098;"
         offset="0"
         id="stop5173" />
      <stop
         id="stop5175"
         offset="1"
         style="stop-color:#1a1c9b;stop-opacity:0.01176471;" />
      <stop
         style="stop-color:#6d2164;stop-opacity:0.00392157;"
         offset="1"
         id="stop5177" />
      <stop
         id="stop5179"
         offset="1"
         style="stop-color:#c0272e;stop-opacity:0;" />
    </linearGradient>
    <marker
       inkscape:stockid="DotL"
       orient="auto"
       refY="0"
       refX="0"
       id="DotL"
       style="overflow:visible">
      <path
         id="path3925"
         d="M -2.5,-1 C -2.5,1.76 -4.74,4 -7.5,4 C -10.26,4 -12.5,1.76 -12.5,-1 C -12.5,-3.76 -10.26,-6 -7.5,-6 C -4.74,-6 -2.5,-3.76 -2.5,-1 z"
         style="fill-rule:evenodd;stroke:#000000;stroke-width:1pt;marker-start:none;marker-end:none"
         transform="matrix(0.8,0,0,0.8,5.92,0.8)" />
    </marker>
    <linearGradient
       id="linearGradient3664">
      <stop
         id="stop3680"
         offset="0"
         style="stop-color:#2756c0;stop-opacity:0.02745098;" />
      <stop
         style="stop-color:#1a1c9b;stop-opacity:0.01176471;"
         offset="1"
         id="stop3682" />
      <stop
         id="stop3684"
         offset="1"
         style="stop-color:#6d2164;stop-opacity:0.00392157;" />
      <stop
         style="stop-color:#c0272e;stop-opacity:0;"
         offset="1"
         id="stop3668" />
    </linearGradient>
    <inkscape:perspective
       sodipodi:type="inkscape:persp3d"
       inkscape:vp_x="0 : 526.18109 : 1"
       inkscape:vp_y="0 : 1000 : 0"
       inkscape:vp_z="744.09448 : 526.18109 : 1"
       inkscape:persp3d-origin="372.04724 : 350.78739 : 1"
       id="perspective10" />
    <inkscape:perspective
       id="perspective2366"
       inkscape:persp3d-origin="0.5 : 0.33333333 : 1"
       inkscape:vp_z="1 : 0.5 : 1"
       inkscape:vp_y="0 : 1000 : 0"
       inkscape:vp_x="0 : 0.5 : 1"
       sodipodi:type="inkscape:persp3d" />
    <inkscape:path-effect
       effect="spiro"
       id="path-effect906-9"
       is_visible="true" />
    <inkscape:perspective
       id="perspective2366-5"
       inkscape:persp3d-origin="0.5 : 0.33333333 : 1"
       inkscape:vp_z="1 : 0.5 : 1"
       inkscape:vp_y="0 : 1000 : 0"
       inkscape:vp_x="0 : 0.5 : 1"
       sodipodi:type="inkscape:persp3d" />
    <inkscape:path-effect
       effect="spiro"
       id="path-effect906-6"
       is_visible="true" />
    <inkscape:perspective
       id="perspective2411"
       inkscape:persp3d-origin="0.5 : 0.33333333 : 1"
       inkscape:vp_z="1 : 0.5 : 1"
       inkscape:vp_y="0 : 1000 : 0"
       inkscape:vp_x="0 : 0.5 : 1"
       sodipodi:type="inkscape:persp3d" />
    <inkscape:path-effect
       effect="spiro"
       id="path-effect906-60"
       is_visible="true" />
    <inkscape:path-effect
       effect="spiro"
       id="path-effect906-9-4"
       is_visible="true" />
    <inkscape:path-effect
       effect="spiro"
       id="path-effect906-6-0"
       is_visible="true" />
  </defs>
  <sodipodi:namedview
     id="base"
     pagecolor="#ffffff"
     bordercolor="#666666"
     borderopacity="1.0"
     gridtolerance="10000"
     guidetolerance="10"
     objecttolerance="10"
     inkscape:pageopacity="0.0"
     inkscape:pageshadow="2"
     inkscape:zoom="1.979899"
     inkscape:cx="14.131417"
     inkscape:cy="128.60285"
     inkscape:document-units="px"
     inkscape:current-layer="layer1"
     showgrid="false"
     inkscape:window-width="1280"
     inkscape:window-height="725"
     inkscape:window-x="0"
     inkscape:window-y="25" />
  <metadata
     id="metadata7">
    <rdf:RDF>
      <cc:Work
         rdf:about="">
        <dc:format>image/svg+xml</dc:format>
        <dc:type
           rdf:resource="http://purl.org/dc/dcmitype/StillImage" />
        <dc:title></dc:title>
      </cc:Work>
    </rdf:RDF>
  </metadata>
  <g
     inkscape:label="Layer 1"
     inkscape:groupmode="layer"
     id="layer1"
     transform="translate(-91.974487,-68.799054)">
    <rect
       style="fill:#ffffff;fill-opacity:0.31555553;fill-rule:evenodd;stroke:#4575c0;stroke-width:10.00028133;stroke-linecap:square;stroke-linejoin:round;stroke-miterlimit:4;stroke-dasharray:none;stroke-dashoffset:0;stroke-opacity:0.8444443"
       id="rect2383"
       width="100"
       height="100"
       x="96.974648"
       y="86.656349"
       transform="matrix(1.1032488,0,0,1.1175346,-9.4606764,-22.490415)" />
    <rect
       style="fill:#f5f5f5;fill-opacity:1;fill-rule:evenodd;stroke:#d3d3d3;stroke-width:4.32089376;stroke-linejoin:round;stroke-miterlimit:4;stroke-opacity:1;stroke-dasharray:none"
       id="rect23"
       width="58.627773"
       height="76.782288"
       x="132.24452"
       y="42.577782"
       transform="matrix(0.94908043,0.31503387,-0.16207016,0.98677924,0,0)" />
    <path
       style="fill:none;stroke:#696969;stroke-width:1px;stroke-opacity:1"
       d="m 125.30952,100.74279 c 0.16836,0.16836 0.29212,0.3986 0.50508,0.50508 0.15058,0.0753 0.33672,0 0.50507,0 0.33672,0 0.67344,0 1.01016,0 1.68359,0 3.36717,0 5.05076,0 0.16836,0 0.33672,0 0.50508,0 0.16836,0 0.38603,-0.11905 0.50507,0 0.11905,0.11904 -0.11904,0.38602 0,0.50507 0.25254,0.25254 1.26269,-0.25254 1.51523,0 0.11905,0.11905 -0.11905,0.38603 0,0.50508 0.11905,0.11905 0.35449,-0.0753 0.50508,0 0.21296,0.10648 0.29212,0.3986 0.50507,0.50507 0.30117,0.15059 0.77206,-0.23809 1.01016,0 0.11904,0.11905 -0.11905,0.38603 0,0.50508 0.11904,0.11905 0.35449,-0.0753 0.50507,0 0.21296,0.10648 0.29212,0.3986 0.50508,0.50508 0.30117,0.15058 0.77206,-0.2381 1.01015,0 0.11905,0.11905 -0.11905,0.38603 0,0.50507 0.2381,0.2381 0.77206,-0.23809 1.01015,0 0.11905,0.11905 -0.11904,0.38603 0,0.50508 0.2381,0.2381 0.77206,-0.2381 1.01016,0 0.11904,0.11905 -0.11905,0.38603 0,0.50508 0.23809,0.23809 0.77205,-0.2381 1.01015,0 0.11905,0.11904 -0.11905,0.38602 0,0.50507 0.23809,0.2381 0.77206,-0.23809 1.01015,0 0.11905,0.11905 -0.11905,0.38603 0,0.50508 0.25254,0.25254 1.26269,-0.25254 1.51523,0 0.11905,0.11905 -0.11905,0.38603 0,0.50508 0.2381,0.23809 0.77206,-0.2381 1.01015,0 0.11905,0.11904 -0.11904,0.38602 0,0.50507 0.2381,0.2381 0.77206,-0.23809 1.01016,0 0.11904,0.11905 -0.11905,0.38603 0,0.50508 0.0203,0.0203 1.83482,0 2.0203,0 0.16836,0 0.33672,0 0.50508,0 0.16836,0 0.38603,-0.11905 0.50507,0 0.11905,0.11905 -0.11904,0.38603 0,0.50507 0.2381,0.2381 0.77206,-0.23809 1.01016,0 0.11904,0.11905 -0.11905,0.38603 0,0.50508 0.16722,0.16722 0.84293,-0.16722 1.01015,0 0.11905,0.11905 -0.11905,0.38603 0,0.50508 0.25254,0.25253 1.26269,-0.25254 1.51523,0 0.11904,0.11904 -0.11905,0.38603 0,0.50507 0.11904,0.11905 0.38603,-0.11904 0.50507,0 0.11905,0.11905 -0.11904,0.38603 0,0.50508 0.25254,0.25254 1.26269,-0.25254 1.51523,0 0.11905,0.11905 -0.11905,0.38603 0,0.50508 0.1564,0.15639 2.36899,-0.1564 2.52538,0 0.11905,0.11904 -0.11904,0.38602 0,0.50507 0.12154,0.12154 1.89877,-0.12154 2.02031,0 0.11905,0.11905 -0.11905,0.38603 0,0.50508 0.11905,0.11905 0.33672,0 0.50508,0 1.01015,0 2.0203,0 3.03045,0"
       id="path808" />
    <path
       style="fill:none;stroke:#696969;stroke-width:1px;stroke-opacity:1"
       d="m 125.30952,108.31893 c 0.30117,0.15059 0.70899,-0.15058 1.01015,0 0.21296,0.10648 0.29212,0.3986 0.50508,0.50508 0.40406,0.20203 1.11117,-0.20203 1.51523,0 0.21296,0.10648 0.29212,0.3986 0.50508,0.50508 0.15058,0.0753 0.35449,-0.0753 0.50507,0 0.42592,0.21295 0.58424,0.79719 1.01015,1.01015 0.15059,0.0753 0.38603,-0.11905 0.50508,0 0.2662,0.2662 0.23888,0.74395 0.50508,1.01015 0.11905,0.11905 0.34535,-0.0532 0.50507,0 0.35715,0.11905 0.69692,0.29625 1.01016,0.50508 0.1981,0.13207 0.2792,0.42978 0.50507,0.50507 0.31944,0.10648 0.69072,-0.10648 1.01015,0 0.22588,0.0753 0.29212,0.3986 0.50508,0.50508 0.15059,0.0753 0.38603,-0.11905 0.50508,0 0.11904,0.11905 -0.11905,0.38603 0,0.50508 0.23809,0.23809 0.70898,-0.15059 1.01015,0 0.21296,0.10648 0.29212,0.39859 0.50508,0.50507 0.15058,0.0753 0.35449,-0.0753 0.50507,0 0.21296,0.10648 0.29212,0.3986 0.50508,0.50508 0.15058,0.0753 0.35449,-0.0753 0.50508,0 0.21295,0.10648 0.2792,0.42978 0.50507,0.50507 0.31944,0.10648 0.69072,-0.10647 1.01015,0 0.22588,0.0753 0.29212,0.3986 0.50508,0.50508 0.15058,0.0753 0.35449,-0.0753 0.50508,0 0.21296,0.10648 0.29211,0.3986 0.50507,0.50508 0.15059,0.0753 0.3545,-0.0753 0.50508,0 0.21296,0.10648 0.29212,0.39859 0.50508,0.50507 0.30117,0.15059 0.69071,-0.10648 1.01015,0 0.35714,0.11905 0.65301,0.38603 1.01015,0.50508 0.15972,0.0532 0.38603,-0.11905 0.50508,0 0.11904,0.11905 -0.11905,0.38603 0,0.50508 0.25254,0.25253 1.26269,-0.25254 1.51523,0 0.11904,0.11904 -0.11905,0.38602 0,0.50507 0.25253,0.25254 1.26269,-0.25254 1.51523,0 0.11904,0.11905 -0.11905,0.38603 0,0.50508 0.11904,0.11905 0.33671,0 0.50507,0 0.16836,0 0.33672,0 0.50508,0 1.51523,0 3.03046,0 4.54568,0 0.16836,0 0.33672,0 0.50508,0 0.16836,0 0.38603,-0.11905 0.50508,0 0.11904,0.11905 -0.11905,0.38603 0,0.50507 0.23809,0.2381 0.77205,-0.23809 1.01015,0 0.11905,0.11905 -0.11905,0.38603 0,0.50508 0.25254,0.25254 1.26269,-0.25254 1.51523,0 0.11905,0.11905 -0.11905,0.38603 0,0.50508 0.11905,0.11905 0.38603,-0.11905 0.50507,0 0.67344,0.67343 -0.84179,0.50507 0.50508,0.50507"
       id="path810" />
    <path
       style="fill:none;stroke:#696969;stroke-width:1.17383729999999997px;stroke-opacity:1"
       d="m 122.36598,120.02867 c 0.19639,0 0.41352,-0.0889 0.58916,0 0.24842,0.12578 0.34076,0.47084 0.58917,0.59661 0.35131,0.17789 0.90058,-0.28124 1.17832,0 0.13887,0.14063 -0.13887,0.456 0,0.59663 0.0915,0.0926 1.53822,-0.0774 1.76748,0 0.4166,0.14062 0.76173,0.45599 1.17832,0.59662 0.18631,0.0628 0.41351,-0.0889 0.58917,0 0.24841,0.12577 0.34074,0.47083 0.58915,0.59661 0.17566,0.0889 0.39278,0 0.58917,0 0.39278,0 0.8057,-0.12578 1.17832,0 0.26348,0.0889 0.32568,0.50768 0.58916,0.59662 0.33758,0.11399 2.39269,0 2.94581,0 0.19639,0 0.45029,-0.14063 0.58916,0 0.13886,0.14062 -0.13887,0.45599 0,0.59661 0.13886,0.14062 0.39277,0 0.58916,0 0.98194,0 1.96387,0 2.9458,0 0.19639,0 0.4503,-0.14062 0.58917,0 0.13887,0.14062 -0.13887,0.45599 0,0.59662 0.27774,0.28125 0.90059,-0.28124 1.17832,0 0.13887,0.14062 -0.13887,0.45599 0,0.59662 0.27773,0.28124 0.90059,-0.28125 1.17832,0 0.13886,0.14061 -0.13886,0.45599 0,0.59661 0.13886,0.14063 0.41351,-0.0889 0.58916,0 0.24841,0.12578 0.34075,0.47084 0.58917,0.59662 0.35131,0.17787 0.82701,-0.17787 1.17832,0 0.24841,0.12578 0.34075,0.47084 0.58916,0.59662 0.35131,0.17787 0.90058,-0.28125 1.17832,0 0.13887,0.14062 -0.13887,0.45598 0,0.59661 0.27773,0.28125 0.82701,-0.17787 1.17832,0 0.24841,0.12578 0.34075,0.47084 0.58917,0.59662 0.37167,0.1882 2.57411,-0.18819 2.9458,0 0.70699,0.35797 1.06049,1.43188 1.76748,1.78985 0.17565,0.089 0.41351,-0.0889 0.58916,0 0.49683,0.25156 0.6815,0.94168 1.17833,1.19324 0.17565,0.0889 0.4503,-0.14063 0.58915,0 0.13887,0.14062 -0.13885,0.45599 0,0.59662 0.19506,0.19752 0.98326,-0.19753 1.17833,0 0.13886,0.14061 -0.13886,0.45598 0,0.59661 0.13886,0.14062 0.39277,0 0.58916,0 0.19639,0 0.39278,0 0.58916,0"
       id="path812" />
    <path
       style="fill:none;stroke:#696969;stroke-width:1.12803757000000004px;stroke-opacity:1"
       d="m 121.33293,134.14184 c 0.65194,0.33075 1.30306,0.66311 1.95335,0.99708 0.41545,0.21337 0.84017,0.43056 1.30224,0.49854 0.43004,0.0633 0.86761,-0.007 1.30223,0 1.14272,0.0172 2.2021,0.55407 3.25559,0.99708 0.42853,0.18021 0.86291,0.34651 1.30223,0.49855 1.05685,0.30887 2.15474,0.47699 3.25559,0.49854 0.434,0.008 0.86815,0 1.30223,0 l 1.95336,0 4.55782,0 c 0.21745,0 0.43482,-0.007 0.65196,-0.0189 0.21713,-0.0117 0.43712,-0.0241 0.65027,0.0189 0.36197,0.0731 0.6692,0.30269 0.96781,0.51993 0.29861,0.21724 0.6187,0.43485 0.98554,0.47716 0.33266,0.0384 0.66168,-0.0723 0.99033,-0.13645 0.16433,-0.0321 0.33247,-0.0528 0.49918,-0.0372 0.16671,0.0156 0.33286,0.0693 0.46385,0.17363 0.11007,0.0876 0.19056,0.20624 0.2877,0.308 0.0486,0.0509 0.10189,0.098 0.16288,0.13302 0.061,0.035 0.13019,0.0577 0.20053,0.0575 0.0589,-1.4e-4 0.11663,-0.0161 0.17225,-0.0355 0.0556,-0.0194 0.11008,-0.0424 0.16701,-0.0575 0.0569,-0.0151 0.11733,-0.0221 0.17473,-0.009 0.0287,0.007 0.0564,0.0183 0.0803,0.0354 0.0239,0.0172 0.044,0.0399 0.0568,0.0665 0.0187,0.0388 0.0211,0.0838 0.0152,0.12654 -0.006,0.0427 -0.0196,0.0839 -0.0318,0.1252 -0.0122,0.0413 -0.0232,0.0836 -0.0233,0.12674 -1.2e-4,0.0431 0.0115,0.0876 0.0399,0.12006 0.0192,0.022 0.0452,0.0375 0.0731,0.046 0.0279,0.009 0.0576,0.0103 0.0866,0.007 0.0581,-0.006 0.11251,-0.0298 0.16584,-0.0535 0.0533,-0.0237 0.10779,-0.0476 0.16585,-0.0534 0.029,-0.003 0.0587,-0.001 0.0866,0.007 0.0279,0.009 0.0539,0.0241 0.0731,0.0461 0.0283,0.0325 0.0399,0.077 0.0397,0.12013 -2e-4,0.0431 -0.0112,0.0854 -0.0235,0.12672 -0.0123,0.0413 -0.026,0.0825 -0.0318,0.1252 -0.006,0.0427 -0.003,0.0877 0.0156,0.12649 0.0129,0.0264 0.0331,0.0491 0.0571,0.0661 0.024,0.017 0.0517,0.0285 0.0804,0.035 0.0574,0.0129 0.11768,0.006 0.1745,-0.01 0.0568,-0.0153 0.11121,-0.0383 0.16683,-0.0574 0.0556,-0.0192 0.11347,-0.0346 0.1723,-0.0339 0.0702,8.6e-4 0.13875,0.025 0.19884,0.0612 0.0601,0.0362 0.11229,0.0843 0.16017,0.13556 0.0958,0.1026 0.17744,0.22085 0.2921,0.30178 0.11685,0.0825 0.25895,0.11978 0.38669,0.18411 0.0639,0.0322 0.12493,0.0717 0.17345,0.12427 0.0485,0.0525 0.084,0.11899 0.091,0.19016 0.008,0.0858 -0.0239,0.16961 -0.042,0.25393 -0.009,0.0422 -0.0145,0.0856 -0.009,0.12842 0.005,0.0428 0.0214,0.0852 0.0514,0.11619 0.0198,0.0205 0.045,0.0353 0.072,0.0445 0.0269,0.009 0.0556,0.0127 0.0841,0.0122 0.0569,-0.001 0.11224,-0.0183 0.16604,-0.0369 0.0538,-0.0186 0.10753,-0.0391 0.1639,-0.0471 0.0564,-0.008 0.11672,-0.003 0.1651,0.0274 0.0395,0.0245 0.0685,0.0642 0.0839,0.10808 0.0154,0.0439 0.0178,0.0917 0.0112,0.13767 -0.0132,0.092 -0.0607,0.17499 -0.10639,0.25598 -0.0456,0.081 -0.0913,0.16547 -0.1002,0.25802 -0.004,0.0463 7.5e-4,0.094 0.0192,0.13664 0.0185,0.0427 0.0507,0.08 0.0923,0.10069 0.0263,0.0131 0.0558,0.0194 0.0851,0.0202 0.0294,8.7e-4 0.0588,-0.004 0.0872,-0.011 0.0569,-0.0148 0.1099,-0.0414 0.16446,-0.0634 0.0546,-0.0219 0.1127,-0.0395 0.17131,-0.0348 0.0293,0.002 0.0584,0.0104 0.0837,0.0254 0.0253,0.0149 0.0468,0.0369 0.0593,0.0635 0.01,0.0208 0.0139,0.0439 0.0137,0.0668 -1.8e-4,0.0229 -0.005,0.0457 -0.0113,0.0676 -0.0134,0.0439 -0.0359,0.0843 -0.0539,0.12647 -0.018,0.0422 -0.0318,0.0879 -0.0263,0.1334 0.003,0.0228 0.0104,0.0451 0.0236,0.0639 0.0132,0.0187 0.0323,0.0336 0.0542,0.0404 0.0251,0.008 0.0531,0.004 0.0765,-0.007 0.0235,-0.0118 0.0424,-0.0318 0.0546,-0.0551 0.0122,-0.0233 0.0178,-0.0497 0.018,-0.076 1.9e-4,-0.0263 -0.005,-0.0524 -0.0133,-0.0773 -0.0166,-0.0498 -0.0457,-0.0944 -0.0729,-0.13933 -0.0272,-0.0449 -0.0533,-0.0919 -0.063,-0.14353 -0.008,-0.0411 -0.004,-0.0842 0.009,-0.12394 0.0131,-0.0397 0.0359,-0.0762 0.0656,-0.10572 0.0593,-0.0591 0.14512,-0.089 0.2287,-0.0846 0.0836,0.004 0.16412,0.0419 0.22506,0.0993 0.0609,0.0574 0.10264,0.13382 0.12314,0.21497 0.0409,0.16177 -7.7e-4,0.33169 0,0.49854 0.001,0.25494 0.10696,0.50785 0.28765,0.68771 0.18068,0.17986 0.43408,0.28448 0.68902,0.28448 0.25495,0 0.50835,-0.10462 0.68903,-0.28448 0.18069,-0.17986 0.28648,-0.43277 0.28765,-0.68771"
       id="path904"
       inkscape:path-effect="#path-effect906"
       inkscape:original-d="m 121.33293,134.14184 c 0.99428,0.7613 0.37658,0.39344 1.95335,0.99708 0.43408,0.16619 0.83141,0.40842 1.30224,0.49854 0.42112,0.0806 0.87658,-0.0652 1.30223,0 1.34098,0.20535 2.09804,0.55394 3.25559,0.99708 0.43408,0.16619 0.82634,0.42568 1.30223,0.49855 4.96714,0 -0.51364,-0.22295 3.25559,0.49854 0.42112,0.0806 0.86816,0 1.30223,0 0.65112,0 1.30224,0 1.95336,0 1.51927,0 3.03854,0 4.55782,0 0.43408,0 0.88111,-0.0807 1.30223,0 3.14422,0.60186 -0.0322,0.23692 1.95335,0.99709 0.5209,0.19941 1.43246,-0.19942 1.95336,0 0.27454,0.1051 0.37658,0.39344 0.65111,0.49854 0.19413,0.0743 0.49766,-0.11751 0.65112,0 0.15347,0.1175 -0.15346,0.38103 0,0.49854 0.15347,0.11751 0.49766,-0.11751 0.65112,0 0.15347,0.11751 -0.15346,0.38103 0,0.49854 0.15347,0.11751 0.45699,-0.0743 0.65112,0 0.27454,0.1051 0.43407,0.33236 0.65111,0.49855 0.21704,0.16617 0.51386,0.28833 0.65112,0.49854 0.0971,0.14863 -0.15346,0.38103 0,0.49854 0.15347,0.1175 0.49766,-0.11751 0.65112,0 0.30694,0.23501 -0.30694,0.76207 0,0.99708 0.15347,0.1175 0.49765,-0.1175 0.65112,0 0.15347,0.1175 0.21703,0.49854 0,0.49854 -0.21704,0 -0.15347,-0.38104 0,-0.49854 0.15347,-0.1175 0.49765,-0.1175 0.65111,0 0.15348,0.1175 -0.15346,0.38104 0,0.49854 0.021,0.016 1.79545,0 1.95335,0" />
    <path
       style="fill:none;stroke:#696969;stroke-width:1.14388192000000011px;stroke-opacity:1"
       d="m 119.06786,143.29258 c 0.67118,0.33068 1.3418,0.6625 2.01184,0.99548 0.42898,0.21318 0.86704,0.42981 1.34123,0.49774 0.44313,0.0635 0.89362,-0.007 1.34123,0 1.17343,0.0171 2.26616,0.55288 3.35306,0.99549 0.44173,0.17988 0.8891,0.34591 1.34123,0.49775 1.09024,0.30848 2.22022,0.47622 3.35306,0.49774 0.44701,0.008 0.89415,0 1.34124,0 l 2.01183,0 4.6943,0 c 0.22394,0 0.44781,-0.007 0.67144,-0.0191 0.22364,-0.0118 0.45008,-0.0243 0.66978,0.0191 0.37059,0.0732 0.68798,0.30253 0.99711,0.51963 0.30912,0.21711 0.6393,0.43403 1.01473,0.47585 0.34249,0.0382 0.68113,-0.074 1.01956,-0.13891 0.16922,-0.0325 0.34224,-0.0533 0.51381,-0.0374 0.17157,0.0159 0.34257,0.0704 0.47847,0.1763 0.11294,0.088 0.19702,0.20711 0.29774,0.3089 0.0504,0.0509 0.10544,0.0979 0.16804,0.1326 0.0626,0.0348 0.13324,0.0569 0.20483,0.0562 0.0608,-5.9e-4 0.12029,-0.0175 0.1776,-0.0378 0.0573,-0.0203 0.11347,-0.0443 0.17223,-0.0599 0.0588,-0.0157 0.12118,-0.0228 0.18036,-0.009 0.0296,0.007 0.0581,0.0193 0.0826,0.0372 0.0245,0.018 0.045,0.0417 0.0578,0.0693 0.0181,0.039 0.0203,0.0838 0.0144,0.12634 -0.006,0.0426 -0.0192,0.0837 -0.0312,0.12496 -0.0119,0.0413 -0.0225,0.0835 -0.0226,0.12648 -4e-5,0.043 0.0114,0.0873 0.0393,0.11996 0.0195,0.0229 0.0463,0.0391 0.0751,0.0481 0.0288,0.009 0.0594,0.0108 0.0894,0.008 0.0599,-0.006 0.116,-0.0312 0.1709,-0.0559 0.0549,-0.0247 0.111,-0.0498 0.17091,-0.0559 0.03,-0.003 0.0606,-0.001 0.0894,0.008 0.0287,0.009 0.0555,0.0252 0.075,0.0482 0.0278,0.0327 0.0392,0.0771 0.0391,0.12004 -1.2e-4,0.043 -0.0108,0.0852 -0.0228,0.12645 -0.012,0.0413 -0.0254,0.0824 -0.0311,0.12497 -0.006,0.0426 -0.003,0.0874 0.0148,0.12628 0.0129,0.0275 0.0335,0.0511 0.0581,0.0689 0.0246,0.0178 0.0531,0.0299 0.0827,0.0366 0.0592,0.0136 0.12145,0.006 0.18007,-0.01 0.0586,-0.0158 0.11468,-0.0398 0.172,-0.0598 0.0573,-0.0201 0.11695,-0.0363 0.17767,-0.0359 0.0714,5.4e-4 0.14132,0.0245 0.20287,0.0607 0.0616,0.0362 0.11533,0.0843 0.16488,0.13568 0.0991,0.1028 0.18458,0.22143 0.30287,0.30142 0.12086,0.0817 0.26663,0.11672 0.398,0.18017 0.0657,0.0317 0.12857,0.0712 0.17863,0.12429 0.05,0.0531 0.0867,0.1207 0.094,0.19328 0.009,0.0856 -0.0232,0.16923 -0.041,0.25335 -0.009,0.0421 -0.0143,0.0854 -0.009,0.12806 0.005,0.0427 0.0209,0.085 0.0504,0.11633 0.0202,0.0214 0.046,0.037 0.0738,0.0466 0.0278,0.01 0.0574,0.0133 0.0868,0.0127 0.0587,-0.001 0.11572,-0.0193 0.17111,-0.039 0.0554,-0.0196 0.11071,-0.0411 0.16886,-0.0494 0.0582,-0.008 0.12058,-0.003 0.17004,0.0292 0.0389,0.025 0.0674,0.0647 0.0825,0.10843 0.0151,0.0437 0.0174,0.0913 0.0109,0.13706 -0.013,0.0916 -0.0597,0.17444 -0.10459,0.25536 -0.0449,0.0809 -0.0897,0.1652 -0.0985,0.25732 -0.004,0.0461 7.1e-4,0.0935 0.0188,0.13607 0.0181,0.0426 0.0498,0.08 0.0909,0.10124 0.027,0.0139 0.0573,0.0207 0.0877,0.0218 0.0303,0.001 0.0607,-0.003 0.0901,-0.0112 0.0587,-0.0154 0.11327,-0.0433 0.16944,-0.0663 0.0562,-0.0231 0.11611,-0.0416 0.17664,-0.0368 0.0303,0.002 0.0603,0.0108 0.0863,0.0263 0.0261,0.0156 0.048,0.0385 0.0605,0.0662 0.009,0.0209 0.0132,0.044 0.0129,0.0669 -3.7e-4,0.0229 -0.005,0.0455 -0.0116,0.0674 -0.0135,0.0437 -0.0358,0.0841 -0.0535,0.1263 -0.0178,0.0422 -0.0312,0.0878 -0.0256,0.13324 0.003,0.0227 0.0105,0.045 0.0238,0.0636 0.0132,0.0186 0.0322,0.0335 0.054,0.0403 0.0251,0.008 0.0531,0.005 0.0767,-0.007 0.0235,-0.0117 0.0426,-0.0316 0.055,-0.0548 0.0124,-0.0232 0.0182,-0.0496 0.0185,-0.0759 3.6e-4,-0.0263 -0.005,-0.0525 -0.0128,-0.0775 -0.0164,-0.05 -0.0454,-0.0946 -0.0728,-0.13949 -0.0274,-0.0449 -0.0539,-0.0915 -0.0645,-0.14307 -0.009,-0.0426 -0.006,-0.0873 0.007,-0.12879 0.0131,-0.0415 0.0365,-0.0795 0.067,-0.11043 0.0611,-0.0618 0.15025,-0.0932 0.23705,-0.0887 0.0868,0.005 0.17037,0.0438 0.23332,0.10374 0.063,0.0599 0.10567,0.13967 0.12621,0.22413 0.0394,0.16182 -8.4e-4,0.3312 0,0.49774 0.001,0.2625 0.11033,0.52287 0.29642,0.70802 0.18608,0.18515 0.44699,0.29284 0.7095,0.29284 0.26251,0 0.52342,-0.10769 0.7095,-0.29284 0.18609,-0.18515 0.2951,-0.44552 0.29642,-0.70802"
       id="path904-0"
       inkscape:path-effect="#path-effect906-9"
       inkscape:original-d="m 119.06786,143.29258 c 1.02406,0.76008 0.38785,0.39281 2.01184,0.99548 0.44708,0.16592 0.8563,0.40777 1.34123,0.49774 0.43373,0.0804 0.90283,-0.0651 1.34123,0 1.38112,0.20503 2.16085,0.55306 3.35306,0.99549 0.44708,0.16591 0.85108,0.42498 1.34123,0.49775 5.11586,0 -0.52902,-0.22261 3.35306,0.49774 0.43373,0.0804 0.89416,0 1.34124,0 0.67062,0 1.34122,0 2.01183,0 1.56478,0 3.12953,0 4.6943,0 0.44707,0 0.9075,-0.0805 1.34122,0 3.23837,0.60088 -0.0332,0.23653 2.01184,0.99548 0.53649,0.19909 1.47535,-0.1991 2.01184,0 0.28277,0.10493 0.38786,0.39281 0.67061,0.49774 0.19994,0.0742 0.51256,-0.11732 0.67062,0 0.15806,0.11731 -0.15806,0.38042 0,0.49774 0.15806,0.11732 0.51255,-0.11732 0.67061,0 0.15807,0.11732 -0.15806,0.38042 0,0.49774 0.15807,0.11732 0.47069,-0.0742 0.67061,0 0.28276,0.10493 0.44708,0.33183 0.67062,0.49775 0.22353,0.1659 0.52924,0.28786 0.67062,0.49774 0.1,0.1484 -0.15807,0.38042 0,0.49774 0.15806,0.11731 0.51254,-0.11732 0.6706,0 0.31614,0.23463 -0.31612,0.76085 0,0.99548 0.15807,0.11732 0.51256,-0.11732 0.67061,0 0.15807,0.11732 0.22354,0.49774 0,0.49774 -0.22353,0 -0.15805,-0.38042 0,-0.49774 0.15807,-0.11732 0.51256,-0.11732 0.67062,0 0.15807,0.11732 -0.15806,0.38042 0,0.49774 0.0216,0.016 1.84921,0 2.01184,0" />
    <path
       style="fill:none;stroke:#696969;stroke-width:1.12001788999999996px;stroke-opacity:1"
       d="m 117.54071,152.37203 c 0.64233,0.33077 1.28371,0.6634 1.92411,0.99789 0.40868,0.21346 0.82673,0.43094 1.28275,0.49895 0.4235,0.0632 0.85461,-0.007 1.28274,0 1.12741,0.0172 2.17008,0.55468 3.20686,0.99789 0.42193,0.18037 0.84982,0.34681 1.28273,0.49895 1.04013,0.30906 2.12199,0.47739 3.20685,0.49895 0.42751,0.009 0.85517,0 1.28276,0 l 1.9241,0 4.48961,0 c 0.2142,0 0.42833,-0.007 0.64221,-0.0188 0.21389,-0.0117 0.43064,-0.024 0.64052,0.0188 0.35768,0.073 0.65983,0.30278 0.95316,0.52007 0.29334,0.2173 0.60838,0.43527 0.97095,0.47782 0.32775,0.0385 0.65195,-0.0714 0.97572,-0.13519 0.16188,-0.0319 0.32758,-0.0525 0.49186,-0.0371 0.16427,0.0154 0.328,0.0688 0.45654,0.17226 0.10864,0.0874 0.18733,0.2058 0.28269,0.30755 0.0477,0.0509 0.1001,0.098 0.16029,0.13323 0.0602,0.0352 0.12867,0.0581 0.19839,0.0582 0.058,7e-5 0.1148,-0.0154 0.16957,-0.0344 0.0548,-0.0189 0.1084,-0.0415 0.16442,-0.0563 0.056,-0.0148 0.1154,-0.0218 0.17191,-0.009 0.0283,0.006 0.0555,0.0178 0.0791,0.0346 0.0236,0.0168 0.0435,0.039 0.0563,0.065 0.0191,0.0387 0.0216,0.0839 0.0156,0.12664 -0.006,0.0428 -0.0198,0.084 -0.0322,0.12532 -0.0124,0.0413 -0.0235,0.0837 -0.0237,0.12687 -1.8e-4,0.0432 0.0116,0.0878 0.0402,0.12011 0.019,0.0215 0.0447,0.0366 0.0722,0.045 0.0275,0.008 0.0567,0.0101 0.0853,0.007 0.0571,-0.006 0.11076,-0.0292 0.1633,-0.0523 0.0525,-0.0231 0.10619,-0.0466 0.16332,-0.0522 0.0286,-0.003 0.0578,-0.001 0.0852,0.007 0.0275,0.008 0.0531,0.0235 0.0721,0.0451 0.0286,0.0324 0.0403,0.077 0.04,0.12018 -2.4e-4,0.0432 -0.0114,0.0855 -0.0238,0.12685 -0.0124,0.0413 -0.0263,0.0825 -0.0322,0.12533 -0.006,0.0428 -0.003,0.0879 0.0159,0.12659 0.0129,0.0259 0.0329,0.0481 0.0566,0.0647 0.0237,0.0166 0.051,0.0279 0.0792,0.0341 0.0565,0.0125 0.11579,0.005 0.1717,-0.01 0.0559,-0.015 0.10948,-0.0375 0.16425,-0.0562 0.0548,-0.0187 0.11174,-0.0338 0.16962,-0.0329 0.0696,0.001 0.13748,0.0252 0.19684,0.0615 0.0594,0.0363 0.11078,0.0843 0.15782,0.13551 0.0941,0.10249 0.17387,0.22055 0.28671,0.30195 0.11485,0.0829 0.25511,0.12129 0.38105,0.18605 0.063,0.0324 0.12311,0.072 0.17087,0.12428 0.0478,0.0523 0.0826,0.11815 0.0895,0.18862 0.008,0.086 -0.0243,0.1698 -0.0425,0.25423 -0.009,0.0422 -0.0146,0.0857 -0.009,0.12859 0.005,0.0429 0.0217,0.0853 0.052,0.11612 0.0196,0.02 0.0445,0.0345 0.071,0.0435 0.0265,0.009 0.0548,0.0124 0.0828,0.0119 0.056,-0.001 0.11049,-0.0177 0.1635,-0.0359 0.053,-0.0182 0.10593,-0.0381 0.16141,-0.046 0.0555,-0.008 0.1148,-0.003 0.16263,0.0265 0.0398,0.0243 0.069,0.064 0.0846,0.1079 0.0156,0.0439 0.018,0.0918 0.0113,0.13797 -0.0133,0.0922 -0.0613,0.17528 -0.1073,0.25631 -0.046,0.081 -0.0921,0.1656 -0.10108,0.25837 -0.004,0.0464 7.8e-4,0.0942 0.0194,0.13693 0.0186,0.0427 0.0512,0.08 0.0931,0.10041 0.052,0.0254 0.1137,0.0232 0.16969,0.009 0.056,-0.0145 0.10822,-0.0405 0.16198,-0.0619 0.0538,-0.0214 0.11098,-0.0384 0.16864,-0.0337 0.0288,0.002 0.0574,0.0102 0.0824,0.0249 0.025,0.0146 0.0462,0.0361 0.0587,0.0622 0.01,0.0207 0.0142,0.0438 0.0141,0.0668 -8e-5,0.023 -0.004,0.0458 -0.0111,0.0677 -0.0134,0.0439 -0.0359,0.0844 -0.0541,0.12657 -0.0181,0.0422 -0.0321,0.0879 -0.0267,0.13348 0.003,0.0228 0.0103,0.0452 0.0235,0.064 0.0132,0.0188 0.0323,0.0337 0.0542,0.0404 0.0251,0.008 0.0531,0.004 0.0765,-0.007 0.0234,-0.0119 0.0423,-0.0319 0.0544,-0.0552 0.0121,-0.0233 0.0177,-0.0497 0.0178,-0.076 1.1e-4,-0.0263 -0.005,-0.0524 -0.0135,-0.0773 -0.0168,-0.0498 -0.0459,-0.0943 -0.073,-0.13924 -0.0272,-0.045 -0.053,-0.0921 -0.0622,-0.14377 -0.007,-0.0404 -0.004,-0.0826 0.009,-0.12151 0.0131,-0.0389 0.0357,-0.0745 0.0649,-0.10338 0.0584,-0.0577 0.14257,-0.0869 0.22456,-0.0826 0.082,0.004 0.161,0.0409 0.22094,0.097 0.0599,0.0561 0.10113,0.1309 0.12161,0.21041 0.0208,0.0809 0.0208,0.16564 0.0155,0.24898 -0.005,0.0833 -0.0158,0.16646 -0.0155,0.24997 0.001,0.25116 0.10527,0.50035 0.28326,0.67756 0.17799,0.17721 0.42763,0.2803 0.67879,0.2803 0.25117,0 0.50081,-0.10309 0.6788,-0.2803 0.17799,-0.17721 0.28216,-0.4264 0.28326,-0.67756"
       id="path904-9"
       inkscape:path-effect="#path-effect906-6"
       inkscape:original-d="m 117.54071,152.37203 c 0.9794,0.76191 0.37094,0.39376 1.92411,0.99789 0.42759,0.16632 0.81897,0.40876 1.28275,0.49895 0.41481,0.0806 0.86346,-0.0653 1.28274,0 1.3209,0.20552 2.06663,0.55439 3.20686,0.99789 0.42757,0.16632 0.81395,0.42602 1.28273,0.49895 4.89278,0 -0.50596,-0.22314 3.20685,0.49895 0.41482,0.0806 0.85516,0 1.28276,0 0.64137,0 1.28273,0 1.9241,0 1.49654,0 2.99306,0 4.48961,0 0.42757,0 0.86793,-0.0807 1.28273,0 3.09716,0.60234 -0.0317,0.2371 1.92411,0.99789 0.5131,0.19958 1.41102,-0.19958 1.92412,0 0.27044,0.10519 0.37095,0.39376 0.64137,0.49895 0.19122,0.0743 0.4902,-0.1176 0.64137,0 0.15118,0.1176 -0.15117,0.38134 0,0.49894 0.15118,0.11761 0.49021,-0.1176 0.64137,0 0.15118,0.11761 -0.15116,0.38135 0,0.49895 0.15118,0.11761 0.45016,-0.0744 0.64137,0 0.27043,0.10519 0.42758,0.33263 0.64137,0.49895 0.21379,0.16631 0.50617,0.28857 0.64139,0.49895 0.0956,0.14875 -0.15118,0.38134 0,0.49894 0.15116,0.1176 0.49019,-0.1176 0.64136,0 0.30235,0.2352 -0.30235,0.76269 0,0.99789 0.15117,0.1176 0.4902,-0.1176 0.64137,0 0.15117,0.1176 0.21379,0.49895 0,0.49895 -0.21379,0 -0.15117,-0.38135 0,-0.49895 0.15117,-0.1176 0.4902,-0.1176 0.64137,0 0.15117,0.1176 -0.15117,0.38135 0,0.49895 0.0206,0.016 1.76857,0 1.92411,0" />
    <rect
       style="fill:#f5f5f5;fill-opacity:1;fill-rule:evenodd;stroke:#d3d3d3;stroke-width:4.32089376;stroke-linejoin:round;stroke-miterlimit:4;stroke-opacity:1;stroke-dasharray:none"
       id="rect23-1"
       width="58.627773"
       height="76.782288"
       x="156.17448"
       y="34.682106"
       transform="matrix(0.94908043,0.31503387,-0.16207016,0.98677924,0,0)" />
    <path
       style="fill:none;stroke:#696969;stroke-width:1px;stroke-opacity:1"
       d="m 149.30064,100.49025 c 0.16836,0.16836 0.29212,0.3986 0.50508,0.50508 0.15058,0.0753 0.33672,0 0.50507,0 0.33672,0 0.67344,0 1.01016,0 1.68359,0 3.36717,0 5.05076,0 0.16836,0 0.33672,0 0.50508,0 0.16836,0 0.38603,-0.11905 0.50507,0 0.11905,0.11904 -0.11904,0.38602 0,0.50507 0.25254,0.25254 1.26269,-0.25254 1.51523,0 0.11905,0.11905 -0.11905,0.38603 0,0.50508 0.11905,0.11905 0.35449,-0.0753 0.50508,0 0.21296,0.10648 0.29212,0.3986 0.50507,0.50507 0.30117,0.15059 0.77206,-0.23809 1.01016,0 0.11904,0.11905 -0.11905,0.38603 0,0.50508 0.11904,0.11905 0.35449,-0.0753 0.50507,0 0.21296,0.10648 0.29212,0.3986 0.50508,0.50508 0.30117,0.15058 0.77206,-0.2381 1.01015,0 0.11905,0.11905 -0.11905,0.38603 0,0.50507 0.2381,0.2381 0.77206,-0.23809 1.01015,0 0.11905,0.11905 -0.11904,0.38603 0,0.50508 0.2381,0.2381 0.77206,-0.2381 1.01016,0 0.11904,0.11905 -0.11905,0.38603 0,0.50508 0.23809,0.23809 0.77205,-0.2381 1.01015,0 0.11905,0.11904 -0.11905,0.38602 0,0.50507 0.23809,0.2381 0.77206,-0.23809 1.01015,0 0.11905,0.11905 -0.11905,0.38603 0,0.50508 0.25254,0.25254 1.26269,-0.25254 1.51523,0 0.11905,0.11905 -0.11905,0.38603 0,0.50508 0.2381,0.23809 0.77206,-0.2381 1.01015,0 0.11905,0.11904 -0.11904,0.38602 0,0.50507 0.2381,0.2381 0.77206,-0.23809 1.01016,0 0.11904,0.11905 -0.11905,0.38603 0,0.50508 0.0203,0.0203 1.83482,0 2.0203,0 0.16836,0 0.33672,0 0.50508,0 0.16836,0 0.38603,-0.11905 0.50507,0 0.11905,0.11905 -0.11904,0.38603 0,0.50507 0.2381,0.2381 0.77206,-0.23809 1.01016,0 0.11904,0.11905 -0.11905,0.38603 0,0.50508 0.16722,0.16722 0.84293,-0.16722 1.01015,0 0.11905,0.11905 -0.11905,0.38603 0,0.50508 0.25254,0.25253 1.26269,-0.25254 1.51523,0 0.11904,0.11904 -0.11905,0.38603 0,0.50507 0.11904,0.11905 0.38603,-0.11904 0.50507,0 0.11905,0.11905 -0.11904,0.38603 0,0.50508 0.25254,0.25254 1.26269,-0.25254 1.51523,0 0.11905,0.11905 -0.11905,0.38603 0,0.50508 0.1564,0.15639 2.36899,-0.1564 2.52538,0 0.11905,0.11904 -0.11904,0.38602 0,0.50507 0.12154,0.12154 1.89877,-0.12154 2.02031,0 0.11905,0.11905 -0.11905,0.38603 0,0.50508 0.11905,0.11905 0.33672,0 0.50508,0 1.01015,0 2.0203,0 3.03045,0"
       id="path808-5" />
    <path
       style="fill:none;stroke:#696969;stroke-width:1px;stroke-opacity:1"
       d="m 149.30064,108.06639 c 0.30117,0.15059 0.70899,-0.15058 1.01015,0 0.21296,0.10648 0.29212,0.3986 0.50508,0.50508 0.40406,0.20203 1.11117,-0.20203 1.51523,0 0.21296,0.10648 0.29212,0.3986 0.50508,0.50508 0.15058,0.0753 0.35449,-0.0753 0.50507,0 0.42592,0.21295 0.58424,0.79719 1.01015,1.01015 0.15059,0.0753 0.38603,-0.11905 0.50508,0 0.2662,0.2662 0.23888,0.74395 0.50508,1.01015 0.11905,0.11905 0.34535,-0.0532 0.50507,0 0.35715,0.11905 0.69692,0.29625 1.01016,0.50508 0.1981,0.13207 0.2792,0.42978 0.50507,0.50507 0.31944,0.10648 0.69072,-0.10648 1.01015,0 0.22588,0.0753 0.29212,0.3986 0.50508,0.50508 0.15059,0.0753 0.38603,-0.11905 0.50508,0 0.11904,0.11905 -0.11905,0.38603 0,0.50508 0.23809,0.23809 0.70898,-0.15059 1.01015,0 0.21296,0.10648 0.29212,0.39859 0.50508,0.50507 0.15058,0.0753 0.35449,-0.0753 0.50507,0 0.21296,0.10648 0.29212,0.3986 0.50508,0.50508 0.15058,0.0753 0.35449,-0.0753 0.50508,0 0.21295,0.10648 0.2792,0.42978 0.50507,0.50507 0.31944,0.10648 0.69072,-0.10647 1.01015,0 0.22588,0.0753 0.29212,0.3986 0.50508,0.50508 0.15058,0.0753 0.35449,-0.0753 0.50508,0 0.21296,0.10648 0.29211,0.3986 0.50507,0.50508 0.15059,0.0753 0.3545,-0.0753 0.50508,0 0.21296,0.10648 0.29212,0.39859 0.50508,0.50507 0.30117,0.15059 0.69071,-0.10648 1.01015,0 0.35714,0.11905 0.65301,0.38603 1.01015,0.50508 0.15972,0.0532 0.38603,-0.11905 0.50508,0 0.11904,0.11905 -0.11905,0.38603 0,0.50508 0.25254,0.25253 1.26269,-0.25254 1.51523,0 0.11904,0.11904 -0.11905,0.38602 0,0.50507 0.25253,0.25254 1.26269,-0.25254 1.51523,0 0.11904,0.11905 -0.11905,0.38603 0,0.50508 0.11904,0.11905 0.33671,0 0.50507,0 0.16836,0 0.33672,0 0.50508,0 1.51523,0 3.03046,0 4.54568,0 0.16836,0 0.33672,0 0.50508,0 0.16836,0 0.38603,-0.11905 0.50508,0 0.11904,0.11905 -0.11905,0.38603 0,0.50507 0.23809,0.2381 0.77205,-0.23809 1.01015,0 0.11905,0.11905 -0.11905,0.38603 0,0.50508 0.25254,0.25254 1.26269,-0.25254 1.51523,0 0.11905,0.11905 -0.11905,0.38603 0,0.50508 0.11905,0.11905 0.38603,-0.11905 0.50507,0 0.67344,0.67343 -0.84179,0.50507 0.50508,0.50507"
       id="path810-4" />
    <path
       style="fill:none;stroke:#696969;stroke-width:1.17383729999999997px;stroke-opacity:1"
       d="m 146.3571,119.77613 c 0.19639,0 0.41352,-0.0889 0.58916,0 0.24842,0.12578 0.34076,0.47084 0.58917,0.59661 0.35131,0.17789 0.90058,-0.28124 1.17832,0 0.13887,0.14063 -0.13887,0.456 0,0.59663 0.0915,0.0926 1.53822,-0.0774 1.76748,0 0.4166,0.14062 0.76173,0.45599 1.17832,0.59662 0.18631,0.0628 0.41351,-0.0889 0.58917,0 0.24841,0.12577 0.34074,0.47083 0.58915,0.59661 0.17566,0.0889 0.39278,0 0.58917,0 0.39278,0 0.8057,-0.12578 1.17832,0 0.26348,0.0889 0.32568,0.50768 0.58916,0.59662 0.33758,0.11399 2.39269,0 2.94581,0 0.19639,0 0.45029,-0.14063 0.58916,0 0.13886,0.14062 -0.13887,0.45599 0,0.59661 0.13886,0.14062 0.39277,0 0.58916,0 0.98194,0 1.96387,0 2.9458,0 0.19639,0 0.4503,-0.14062 0.58917,0 0.13887,0.14062 -0.13887,0.45599 0,0.59662 0.27774,0.28125 0.90059,-0.28124 1.17832,0 0.13887,0.14062 -0.13887,0.45599 0,0.59662 0.27773,0.28124 0.90059,-0.28125 1.17832,0 0.13886,0.14061 -0.13886,0.45599 0,0.59661 0.13886,0.14063 0.41351,-0.0889 0.58916,0 0.24841,0.12578 0.34075,0.47084 0.58917,0.59662 0.35131,0.17787 0.82701,-0.17787 1.17832,0 0.24841,0.12578 0.34075,0.47084 0.58916,0.59662 0.35131,0.17787 0.90058,-0.28125 1.17832,0 0.13887,0.14062 -0.13887,0.45598 0,0.59661 0.27773,0.28125 0.82701,-0.17787 1.17832,0 0.24841,0.12578 0.34075,0.47084 0.58917,0.59662 0.37167,0.1882 2.57411,-0.18819 2.9458,0 0.70699,0.35797 1.06049,1.43188 1.76748,1.78985 0.17565,0.089 0.41351,-0.0889 0.58916,0 0.49683,0.25156 0.6815,0.94168 1.17833,1.19324 0.17565,0.0889 0.4503,-0.14063 0.58915,0 0.13887,0.14062 -0.13885,0.45599 0,0.59662 0.19506,0.19752 0.98326,-0.19753 1.17833,0 0.13886,0.14061 -0.13886,0.45598 0,0.59661 0.13886,0.14062 0.39277,0 0.58916,0 0.19639,0 0.39278,0 0.58916,0"
       id="path812-5" />
    <path
       style="fill:none;stroke:#696969;stroke-width:1.12803757000000004px;stroke-opacity:1"
       d="m 145.32405,133.8893 c 0.65194,0.33075 1.30306,0.66311 1.95335,0.99708 0.41545,0.21337 0.84017,0.43056 1.30224,0.49854 0.43004,0.0633 0.86761,-0.007 1.30223,0 1.14272,0.0172 2.2021,0.55407 3.25559,0.99708 0.42853,0.18021 0.86291,0.34651 1.30223,0.49855 1.05685,0.30887 2.15474,0.47699 3.25559,0.49854 0.434,0.008 0.86815,0 1.30223,0 l 1.95336,0 4.55782,0 c 0.21745,0 0.43482,-0.007 0.65196,-0.0189 0.21713,-0.0117 0.43712,-0.0241 0.65027,0.0189 0.36197,0.0731 0.6692,0.30269 0.96781,0.51993 0.29861,0.21724 0.6187,0.43485 0.98554,0.47716 0.33266,0.0384 0.66168,-0.0723 0.99033,-0.13645 0.16433,-0.0321 0.33247,-0.0528 0.49918,-0.0372 0.16671,0.0156 0.33286,0.0693 0.46385,0.17363 0.11007,0.0876 0.19056,0.20624 0.2877,0.308 0.0486,0.0509 0.10189,0.098 0.16288,0.13302 0.061,0.035 0.13019,0.0577 0.20053,0.0575 0.0589,-1.4e-4 0.11663,-0.0161 0.17225,-0.0355 0.0556,-0.0194 0.11008,-0.0424 0.16701,-0.0575 0.0569,-0.0151 0.11733,-0.0221 0.17473,-0.009 0.0287,0.007 0.0564,0.0183 0.0803,0.0354 0.0239,0.0172 0.044,0.0399 0.0568,0.0665 0.0187,0.0388 0.0211,0.0838 0.0152,0.12654 -0.006,0.0427 -0.0196,0.0839 -0.0318,0.1252 -0.0122,0.0413 -0.0232,0.0836 -0.0233,0.12674 -1.2e-4,0.0431 0.0115,0.0876 0.0399,0.12006 0.0192,0.022 0.0452,0.0375 0.0731,0.046 0.0279,0.009 0.0576,0.0103 0.0866,0.007 0.0581,-0.006 0.11251,-0.0298 0.16584,-0.0535 0.0533,-0.0237 0.10779,-0.0476 0.16585,-0.0534 0.029,-0.003 0.0587,-0.001 0.0866,0.007 0.0279,0.009 0.0539,0.0241 0.0731,0.0461 0.0283,0.0325 0.0399,0.077 0.0397,0.12013 -2e-4,0.0431 -0.0112,0.0854 -0.0235,0.12672 -0.0123,0.0413 -0.026,0.0825 -0.0318,0.1252 -0.006,0.0427 -0.003,0.0877 0.0156,0.12649 0.0129,0.0264 0.0331,0.0491 0.0571,0.0661 0.024,0.017 0.0517,0.0285 0.0804,0.0349 0.0574,0.0129 0.11768,0.006 0.1745,-0.01 0.0568,-0.0153 0.11121,-0.0383 0.16683,-0.0574 0.0556,-0.0192 0.11347,-0.0346 0.1723,-0.0339 0.0702,8.6e-4 0.13875,0.025 0.19884,0.0612 0.0601,0.0362 0.11229,0.0843 0.16017,0.13556 0.0958,0.1026 0.17744,0.22085 0.2921,0.30178 0.11685,0.0825 0.25895,0.11978 0.38669,0.18411 0.0639,0.0322 0.12493,0.0717 0.17345,0.12427 0.0485,0.0525 0.0839,0.11899 0.091,0.19016 0.008,0.0858 -0.0239,0.16961 -0.042,0.25393 -0.009,0.0422 -0.0145,0.0856 -0.009,0.12842 0.005,0.0428 0.0214,0.0852 0.0514,0.11619 0.0198,0.0204 0.045,0.0353 0.072,0.0445 0.0269,0.009 0.0556,0.0127 0.0841,0.0122 0.0569,-0.001 0.11224,-0.0183 0.16604,-0.0369 0.0538,-0.0187 0.10753,-0.0391 0.1639,-0.0471 0.0564,-0.008 0.11672,-0.003 0.1651,0.0274 0.0395,0.0245 0.0685,0.0642 0.0839,0.10808 0.0154,0.0439 0.0178,0.0916 0.0112,0.13767 -0.0132,0.092 -0.0607,0.17499 -0.10639,0.25598 -0.0457,0.081 -0.0913,0.16547 -0.1002,0.25802 -0.004,0.0463 7.5e-4,0.094 0.0192,0.13664 0.0185,0.0427 0.0507,0.08 0.0923,0.10069 0.0263,0.0131 0.0558,0.0194 0.0851,0.0202 0.0294,8.7e-4 0.0588,-0.004 0.0872,-0.011 0.0569,-0.0148 0.1099,-0.0414 0.16446,-0.0634 0.0546,-0.0219 0.1127,-0.0395 0.17131,-0.0348 0.0293,0.002 0.0584,0.0104 0.0837,0.0254 0.0253,0.0149 0.0468,0.0369 0.0593,0.0635 0.01,0.0208 0.0139,0.0439 0.0137,0.0668 -1.8e-4,0.0229 -0.005,0.0457 -0.0113,0.0676 -0.0134,0.0438 -0.0359,0.0843 -0.0539,0.12647 -0.018,0.0422 -0.0318,0.0879 -0.0263,0.1334 0.003,0.0228 0.0104,0.0451 0.0236,0.0639 0.0132,0.0187 0.0323,0.0336 0.0542,0.0404 0.0251,0.008 0.0531,0.004 0.0765,-0.007 0.0235,-0.0118 0.0424,-0.0318 0.0546,-0.0551 0.0122,-0.0233 0.0178,-0.0497 0.018,-0.076 1.9e-4,-0.0263 -0.005,-0.0524 -0.0133,-0.0773 -0.0166,-0.0498 -0.0457,-0.0944 -0.0729,-0.13933 -0.0272,-0.0449 -0.0533,-0.0919 -0.063,-0.14353 -0.008,-0.0411 -0.004,-0.0842 0.009,-0.12394 0.0131,-0.0397 0.0359,-0.0762 0.0656,-0.10572 0.0593,-0.0591 0.14512,-0.089 0.2287,-0.0846 0.0836,0.004 0.16412,0.0419 0.22506,0.0993 0.0609,0.0574 0.10264,0.13382 0.12314,0.21497 0.0409,0.16177 -7.7e-4,0.33169 0,0.49854 0.001,0.25494 0.10696,0.50785 0.28765,0.68771 0.18068,0.17986 0.43408,0.28448 0.68902,0.28448 0.25495,0 0.50835,-0.10462 0.68903,-0.28448 0.18069,-0.17986 0.28648,-0.43277 0.28765,-0.68771"
       id="path904-3"
       inkscape:path-effect="#path-effect906-60"
       inkscape:original-d="m 145.32405,133.8893 c 0.99428,0.7613 0.37658,0.39344 1.95335,0.99708 0.43408,0.16619 0.83141,0.40842 1.30224,0.49854 0.42112,0.0806 0.87658,-0.0652 1.30223,0 1.34098,0.20535 2.09804,0.55394 3.25559,0.99708 0.43408,0.16619 0.82634,0.42568 1.30223,0.49855 4.96714,0 -0.51364,-0.22295 3.25559,0.49854 0.42112,0.0806 0.86816,0 1.30223,0 0.65112,0 1.30224,0 1.95336,0 1.51927,0 3.03854,0 4.55782,0 0.43408,0 0.88111,-0.0807 1.30223,0 3.14422,0.60186 -0.0322,0.23692 1.95335,0.99709 0.5209,0.19941 1.43246,-0.19942 1.95336,0 0.27454,0.1051 0.37658,0.39344 0.65111,0.49854 0.19413,0.0743 0.49766,-0.11751 0.65112,0 0.15347,0.1175 -0.15346,0.38103 0,0.49854 0.15347,0.11751 0.49766,-0.11751 0.65112,0 0.15347,0.11751 -0.15346,0.38103 0,0.49854 0.15347,0.11751 0.45699,-0.0743 0.65112,0 0.27454,0.1051 0.43407,0.33236 0.65111,0.49855 0.21704,0.16617 0.51386,0.28833 0.65112,0.49854 0.0971,0.14863 -0.15346,0.38103 0,0.49854 0.15347,0.1175 0.49766,-0.11751 0.65112,0 0.30694,0.23501 -0.30694,0.76207 0,0.99708 0.15347,0.1175 0.49765,-0.1175 0.65112,0 0.15347,0.1175 0.21703,0.49854 0,0.49854 -0.21704,0 -0.15347,-0.38104 0,-0.49854 0.15347,-0.1175 0.49765,-0.1175 0.65111,0 0.15348,0.1175 -0.15346,0.38104 0,0.49854 0.021,0.016 1.79545,0 1.95335,0" />
    <path
       style="fill:none;stroke:#696969;stroke-width:1.14388192000000011px;stroke-opacity:1"
       d="m 143.05898,143.04004 c 0.67118,0.33068 1.3418,0.6625 2.01184,0.99548 0.42898,0.21318 0.86704,0.42981 1.34123,0.49774 0.44313,0.0635 0.89362,-0.007 1.34123,0 1.17343,0.0171 2.26616,0.55288 3.35306,0.99549 0.44173,0.17988 0.8891,0.34591 1.34123,0.49775 1.09024,0.30848 2.22022,0.47622 3.35306,0.49774 0.44701,0.008 0.89415,0 1.34124,0 l 2.01183,0 4.6943,0 c 0.22394,0 0.44781,-0.007 0.67144,-0.0191 0.22364,-0.0118 0.45008,-0.0243 0.66978,0.0191 0.37059,0.0732 0.68798,0.30253 0.99711,0.51963 0.30912,0.21711 0.6393,0.43403 1.01473,0.47585 0.34249,0.0382 0.68113,-0.074 1.01956,-0.13891 0.16922,-0.0325 0.34224,-0.0533 0.51381,-0.0374 0.17157,0.0159 0.34257,0.0704 0.47847,0.1763 0.11294,0.088 0.19702,0.20711 0.29774,0.3089 0.0504,0.0509 0.10544,0.0979 0.16804,0.1326 0.0626,0.0348 0.13324,0.0569 0.20483,0.0562 0.0608,-5.9e-4 0.12029,-0.0175 0.1776,-0.0378 0.0573,-0.0203 0.11347,-0.0443 0.17223,-0.0599 0.0588,-0.0157 0.12118,-0.0228 0.18036,-0.009 0.0296,0.007 0.0581,0.0193 0.0826,0.0372 0.0245,0.018 0.045,0.0417 0.0578,0.0693 0.0181,0.039 0.0203,0.0838 0.0144,0.12634 -0.006,0.0426 -0.0192,0.0837 -0.0312,0.12496 -0.0119,0.0413 -0.0225,0.0835 -0.0226,0.12648 -4e-5,0.043 0.0114,0.0873 0.0393,0.11996 0.0195,0.0229 0.0463,0.0391 0.0751,0.0481 0.0288,0.009 0.0594,0.0108 0.0894,0.008 0.0599,-0.006 0.116,-0.0312 0.1709,-0.0559 0.0549,-0.0247 0.111,-0.0498 0.17091,-0.0559 0.03,-0.003 0.0606,-0.001 0.0894,0.008 0.0287,0.009 0.0555,0.0252 0.075,0.0482 0.0278,0.0327 0.0392,0.0771 0.0391,0.12004 -1.2e-4,0.043 -0.0108,0.0852 -0.0228,0.12645 -0.012,0.0413 -0.0254,0.0824 -0.0311,0.12497 -0.006,0.0426 -0.003,0.0874 0.0148,0.12628 0.0129,0.0275 0.0335,0.0511 0.0581,0.0689 0.0246,0.0178 0.0531,0.0299 0.0827,0.0366 0.0592,0.0136 0.12145,0.006 0.18007,-0.01 0.0586,-0.0158 0.11468,-0.0398 0.172,-0.0598 0.0573,-0.02 0.11695,-0.0363 0.17767,-0.0359 0.0714,5.4e-4 0.14132,0.0245 0.20287,0.0607 0.0616,0.0362 0.11533,0.0843 0.16488,0.13568 0.0991,0.1028 0.18458,0.22143 0.30287,0.30142 0.12086,0.0817 0.26663,0.11672 0.398,0.18017 0.0657,0.0317 0.12857,0.0712 0.17863,0.12429 0.05,0.0531 0.0867,0.1207 0.094,0.19328 0.009,0.0855 -0.0232,0.16923 -0.041,0.25335 -0.009,0.0421 -0.0143,0.0854 -0.009,0.12806 0.005,0.0427 0.0209,0.085 0.0504,0.11633 0.0202,0.0214 0.046,0.037 0.0738,0.0466 0.0278,0.01 0.0574,0.0133 0.0868,0.0127 0.0587,-0.001 0.11572,-0.0193 0.17111,-0.039 0.0554,-0.0196 0.11071,-0.0411 0.16886,-0.0495 0.0582,-0.008 0.12058,-0.003 0.17004,0.0292 0.0389,0.025 0.0674,0.0647 0.0825,0.10843 0.0151,0.0437 0.0174,0.0913 0.0109,0.13706 -0.013,0.0916 -0.0597,0.17444 -0.10459,0.25536 -0.0449,0.0809 -0.0897,0.1652 -0.0985,0.25732 -0.004,0.0461 7.1e-4,0.0935 0.0188,0.13607 0.0181,0.0426 0.0498,0.08 0.0909,0.10124 0.027,0.0139 0.0573,0.0207 0.0877,0.0218 0.0303,0.001 0.0607,-0.003 0.0901,-0.0112 0.0587,-0.0154 0.11327,-0.0433 0.16944,-0.0663 0.0562,-0.0231 0.11611,-0.0416 0.17664,-0.0368 0.0303,0.002 0.0603,0.0108 0.0863,0.0263 0.0261,0.0156 0.048,0.0385 0.0605,0.0662 0.009,0.0209 0.0132,0.044 0.0129,0.0669 -3.7e-4,0.0229 -0.005,0.0455 -0.0116,0.0674 -0.0135,0.0437 -0.0358,0.0841 -0.0535,0.1263 -0.0178,0.0422 -0.0312,0.0878 -0.0256,0.13324 0.003,0.0227 0.0105,0.045 0.0238,0.0636 0.0132,0.0186 0.0322,0.0335 0.054,0.0403 0.0251,0.008 0.0531,0.005 0.0767,-0.007 0.0235,-0.0117 0.0426,-0.0316 0.055,-0.0548 0.0124,-0.0232 0.0182,-0.0496 0.0185,-0.0759 3.6e-4,-0.0263 -0.005,-0.0525 -0.0128,-0.0775 -0.0164,-0.0499 -0.0454,-0.0946 -0.0729,-0.13949 -0.0274,-0.0449 -0.0539,-0.0916 -0.0645,-0.14307 -0.009,-0.0426 -0.006,-0.0874 0.007,-0.12879 0.0131,-0.0414 0.0365,-0.0795 0.067,-0.11043 0.0611,-0.0618 0.15025,-0.0932 0.23705,-0.0887 0.0868,0.005 0.17037,0.0438 0.23332,0.10374 0.063,0.0599 0.10567,0.13967 0.12621,0.22413 0.0394,0.16182 -8.4e-4,0.3312 0,0.49774 0.001,0.2625 0.11033,0.52287 0.29642,0.70802 0.18608,0.18515 0.44699,0.29284 0.7095,0.29284 0.26251,0 0.52342,-0.10769 0.7095,-0.29284 0.18609,-0.18515 0.2951,-0.44552 0.29642,-0.70802"
       id="path904-0-6"
       inkscape:path-effect="#path-effect906-9-4"
       inkscape:original-d="m 143.05898,143.04004 c 1.02406,0.76008 0.38785,0.39281 2.01184,0.99548 0.44708,0.16592 0.8563,0.40777 1.34123,0.49774 0.43373,0.0804 0.90283,-0.0651 1.34123,0 1.38112,0.20503 2.16085,0.55306 3.35306,0.99549 0.44708,0.16591 0.85108,0.42498 1.34123,0.49775 5.11586,0 -0.52902,-0.22261 3.35306,0.49774 0.43373,0.0804 0.89416,0 1.34124,0 0.67062,0 1.34122,0 2.01183,0 1.56478,0 3.12953,0 4.6943,0 0.44707,0 0.9075,-0.0805 1.34122,0 3.23837,0.60088 -0.0332,0.23653 2.01184,0.99548 0.53649,0.19909 1.47535,-0.1991 2.01184,0 0.28277,0.10493 0.38786,0.39281 0.67061,0.49774 0.19994,0.0742 0.51256,-0.11732 0.67062,0 0.15806,0.11731 -0.15806,0.38042 0,0.49774 0.15806,0.11732 0.51255,-0.11732 0.67061,0 0.15807,0.11732 -0.15806,0.38042 0,0.49774 0.15807,0.11732 0.47069,-0.0742 0.67061,0 0.28276,0.10493 0.44708,0.33183 0.67062,0.49775 0.22353,0.1659 0.52924,0.28786 0.67062,0.49774 0.1,0.1484 -0.15807,0.38042 0,0.49774 0.15806,0.11731 0.51254,-0.11732 0.6706,0 0.31614,0.23463 -0.31612,0.76085 0,0.99548 0.15807,0.11732 0.51256,-0.11732 0.67061,0 0.15807,0.11732 0.22354,0.49774 0,0.49774 -0.22353,0 -0.15805,-0.38042 0,-0.49774 0.15807,-0.11732 0.51256,-0.11732 0.67062,0 0.15807,0.11732 -0.15806,0.38042 0,0.49774 0.0216,0.016 1.84921,0 2.01184,0" />
    <path
       style="fill:none;stroke:#696969;stroke-width:1.12001788999999996px;stroke-opacity:1"
       d="m 141.53183,152.11949 c 0.64233,0.33077 1.28371,0.6634 1.92411,0.99789 0.40868,0.21346 0.82673,0.43094 1.28275,0.49895 0.4235,0.0632 0.85461,-0.007 1.28274,0 1.12741,0.0172 2.17008,0.55468 3.20686,0.99789 0.42193,0.18037 0.84982,0.34681 1.28273,0.49895 1.04013,0.30906 2.12199,0.47739 3.20685,0.49895 0.42751,0.008 0.85517,0 1.28276,0 l 1.9241,0 4.48961,0 c 0.2142,0 0.42833,-0.007 0.64221,-0.0188 0.21389,-0.0117 0.43064,-0.024 0.64052,0.0188 0.35768,0.073 0.65983,0.30278 0.95316,0.52007 0.29334,0.2173 0.60838,0.43527 0.97095,0.47782 0.32775,0.0385 0.65195,-0.0714 0.97572,-0.13519 0.16188,-0.0319 0.32758,-0.0525 0.49186,-0.0371 0.16427,0.0154 0.328,0.0688 0.45654,0.17226 0.10864,0.0874 0.18733,0.2058 0.28269,0.30755 0.0477,0.0509 0.1001,0.098 0.16029,0.13323 0.0602,0.0352 0.12867,0.0581 0.19839,0.0582 0.058,7e-5 0.1148,-0.0154 0.16957,-0.0344 0.0548,-0.0189 0.1084,-0.0415 0.16442,-0.0563 0.056,-0.0148 0.1154,-0.0218 0.17191,-0.009 0.0283,0.006 0.0555,0.0178 0.0791,0.0346 0.0236,0.0168 0.0435,0.039 0.0563,0.065 0.0191,0.0387 0.0216,0.0839 0.0156,0.12664 -0.006,0.0428 -0.0198,0.084 -0.0322,0.12532 -0.0124,0.0413 -0.0235,0.0837 -0.0237,0.12687 -1.8e-4,0.0432 0.0116,0.0878 0.0402,0.12011 0.019,0.0215 0.0447,0.0366 0.0722,0.045 0.0275,0.008 0.0567,0.0101 0.0852,0.007 0.0571,-0.006 0.11076,-0.0291 0.1633,-0.0523 0.0525,-0.0231 0.10619,-0.0466 0.16332,-0.0522 0.0286,-0.003 0.0578,-0.001 0.0852,0.007 0.0275,0.008 0.0531,0.0235 0.0721,0.0451 0.0286,0.0324 0.0403,0.077 0.04,0.12018 -2.4e-4,0.0432 -0.0114,0.0855 -0.0238,0.12685 -0.0124,0.0413 -0.0263,0.0825 -0.0322,0.12533 -0.006,0.0428 -0.003,0.0879 0.016,0.12659 0.0129,0.0259 0.0329,0.0481 0.0566,0.0647 0.0237,0.0166 0.051,0.0279 0.0792,0.0341 0.0565,0.0125 0.11579,0.005 0.1717,-0.01 0.0559,-0.015 0.10948,-0.0375 0.16425,-0.0562 0.0548,-0.0187 0.11174,-0.0338 0.16962,-0.0329 0.0696,0.001 0.13748,0.0252 0.19684,0.0615 0.0594,0.0363 0.11078,0.0843 0.15782,0.13551 0.0941,0.10249 0.17387,0.22055 0.28671,0.30195 0.11485,0.0829 0.25511,0.12129 0.38105,0.18605 0.063,0.0324 0.12311,0.072 0.17087,0.12428 0.0478,0.0523 0.0826,0.11815 0.0895,0.18862 0.008,0.086 -0.0243,0.1698 -0.0425,0.25423 -0.009,0.0422 -0.0146,0.0857 -0.009,0.12859 0.005,0.0429 0.0217,0.0853 0.052,0.11612 0.0196,0.02 0.0445,0.0345 0.071,0.0435 0.0265,0.009 0.0548,0.0124 0.0828,0.0119 0.056,-0.001 0.11049,-0.0177 0.1635,-0.0359 0.053,-0.0182 0.10593,-0.0381 0.16141,-0.046 0.0555,-0.008 0.1148,-0.003 0.16263,0.0265 0.0398,0.0243 0.069,0.064 0.0846,0.1079 0.0156,0.0439 0.018,0.0918 0.0113,0.13797 -0.0133,0.0923 -0.0613,0.17528 -0.1073,0.25631 -0.0461,0.081 -0.0921,0.1656 -0.10108,0.25837 -0.004,0.0464 7.8e-4,0.0942 0.0194,0.13693 0.0186,0.0427 0.0512,0.08 0.0931,0.10041 0.052,0.0253 0.1137,0.0231 0.16969,0.009 0.056,-0.0145 0.10822,-0.0405 0.16198,-0.0619 0.0538,-0.0214 0.11098,-0.0384 0.16864,-0.0337 0.0288,0.002 0.0574,0.0102 0.0824,0.0248 0.025,0.0146 0.0462,0.0361 0.0587,0.0622 0.01,0.0207 0.0142,0.0438 0.0141,0.0668 -8e-5,0.023 -0.004,0.0458 -0.0111,0.0677 -0.0134,0.0439 -0.0359,0.0844 -0.0541,0.12657 -0.0181,0.0422 -0.0321,0.0879 -0.0267,0.13348 0.003,0.0228 0.0103,0.0452 0.0235,0.064 0.0132,0.0187 0.0323,0.0337 0.0542,0.0404 0.0251,0.008 0.0531,0.004 0.0765,-0.007 0.0234,-0.0119 0.0423,-0.0319 0.0544,-0.0552 0.0121,-0.0233 0.0177,-0.0497 0.0178,-0.076 1.1e-4,-0.0263 -0.005,-0.0524 -0.0135,-0.0773 -0.0168,-0.0498 -0.0459,-0.0943 -0.073,-0.13924 -0.0272,-0.045 -0.053,-0.0921 -0.0622,-0.14377 -0.007,-0.0404 -0.004,-0.0826 0.009,-0.12151 0.0131,-0.0389 0.0357,-0.0745 0.0649,-0.10338 0.0584,-0.0577 0.14257,-0.0869 0.22456,-0.0826 0.082,0.004 0.161,0.0409 0.22094,0.097 0.0599,0.0561 0.10113,0.1309 0.12161,0.21041 0.0208,0.0809 0.0208,0.16564 0.0155,0.24898 -0.005,0.0833 -0.0158,0.16646 -0.0155,0.24997 0.001,0.25116 0.10527,0.50035 0.28326,0.67756 0.17799,0.17721 0.42763,0.2803 0.67879,0.2803 0.25117,0 0.50081,-0.10309 0.6788,-0.2803 0.17799,-0.17721 0.28216,-0.4264 0.28326,-0.67756"
       id="path904-9-0"
       inkscape:path-effect="#path-effect906-6-0"
       inkscape:original-d="m 141.53183,152.11949 c 0.9794,0.76191 0.37094,0.39376 1.92411,0.99789 0.42759,0.16632 0.81897,0.40876 1.28275,0.49895 0.41481,0.0806 0.86346,-0.0653 1.28274,0 1.3209,0.20552 2.06663,0.55439 3.20686,0.99789 0.42757,0.16632 0.81395,0.42602 1.28273,0.49895 4.89278,0 -0.50596,-0.22314 3.20685,0.49895 0.41482,0.0806 0.85516,0 1.28276,0 0.64137,0 1.28273,0 1.9241,0 1.49654,0 2.99306,0 4.48961,0 0.42757,0 0.86793,-0.0807 1.28273,0 3.09716,0.60234 -0.0317,0.2371 1.92411,0.99789 0.5131,0.19958 1.41102,-0.19958 1.92412,0 0.27044,0.10519 0.37095,0.39376 0.64137,0.49895 0.19122,0.0743 0.4902,-0.1176 0.64137,0 0.15118,0.1176 -0.15117,0.38134 0,0.49894 0.15118,0.11761 0.49021,-0.1176 0.64137,0 0.15118,0.11761 -0.15116,0.38135 0,0.49895 0.15118,0.11761 0.45016,-0.0744 0.64137,0 0.27043,0.10519 0.42758,0.33263 0.64137,0.49895 0.21379,0.16631 0.50617,0.28857 0.64139,0.49895 0.0956,0.14875 -0.15118,0.38134 0,0.49894 0.15116,0.1176 0.49019,-0.1176 0.64136,0 0.30235,0.2352 -0.30235,0.76269 0,0.99789 0.15117,0.1176 0.4902,-0.1176 0.64137,0 0.15117,0.1176 0.21379,0.49895 0,0.49895 -0.21379,0 -0.15117,-0.38135 0,-0.49895 0.15117,-0.1176 0.4902,-0.1176 0.64137,0 0.15117,0.1176 -0.15117,0.38135 0,0.49895 0.0206,0.016 1.76857,0 1.92411,0" />
  </g>
</svg>
